<svg width="46" height="46" viewBox="0 0 46 46" fill="none" xmlns="http://www.w3.org/2000/svg">
<path d="M43 39.0491V23.5894C43.0001 22.5138 42.7779 21.4495 42.347 20.4617C41.9161 19.4739 41.2856 18.5834 40.494 17.8448L25.748 4.07994C25.0053 3.38642 24.022 3 23 3C21.978 3 20.9947 3.38642 20.252 4.07994L5.506 17.8448C4.71445 18.5834 4.0839 19.4739 3.653 20.4617C3.22209 21.4495 2.99988 22.5138 3 23.5894V39.0491C3 40.097 3.42143 41.1019 4.17157 41.8428C4.92172 42.5837 5.93913 43 7 43H39C40.0609 43 41.0783 42.5837 41.8284 41.8428C42.5786 41.1019 43 40.097 43 39.0491Z" fill="black" stroke="black" stroke-width="6" stroke-linecap="round" stroke-linejoin="round"/>
</svg>
