<svg viewBox="0 0 39 36" xmlns="http://www.w3.org/2000/svg">
<path d="M36.6994 9.02541L36.7078 9.04002L36.7165 9.05449C36.8855 9.33623 36.9821 9.65543 36.9978 9.9836C37.0132 10.3066 36.9496 10.6285 36.8126 10.9213L30.2825 23.9816H12.3356H12.3013L12.271 23.9827L7.97978 8.03056H9.50253H35.021C35.3603 8.0383 35.6921 8.13268 35.9847 8.30483C36.2812 8.47923 36.5275 8.7275 36.6994 9.02541ZM6.41467 2.0442L7.35358 5.70275L6.76531 3.51591L6.36969 2.04524H6.3845L6.41467 2.0442Z"/>
<path d="M14.3258 31.9658C14.3258 33.065 13.4347 33.956 12.3356 33.956C11.2364 33.956 10.3453 33.065 10.3453 31.9658C10.3453 30.8666 11.2364 29.9756 12.3356 29.9756C13.4347 29.9756 14.3258 30.8666 14.3258 31.9658Z"/>
<path d="M32.2818 31.9658C32.2818 33.065 31.3907 33.956 30.2915 33.956C29.1924 33.956 28.3013 33.065 28.3013 31.9658C28.3013 30.8666 29.1924 29.9756 30.2915 29.9756C31.3907 29.9756 32.2818 30.8666 32.2818 31.9658Z"/>
</svg>
