<svg viewBox="0 0 41 46" fill="none" xmlns="http://www.w3.org/2000/svg">
<path d="M5.89337 16.0603C5.15433 16.7423 4.69927 17.6776 4.61882 18.68L3.01282 38.68C2.96865 39.2304 3.0389 39.784 3.21916 40.3059C3.39942 40.8278 3.68578 41.3067 4.06021 41.7125C4.43464 42.1183 4.88903 42.4422 5.39478 42.6638C5.90052 42.8854 6.44666 42.9998 6.99882 43H34.3308C34.883 42.9998 35.4291 42.8854 35.9349 42.6638C36.4406 42.4422 36.895 42.1183 37.2694 41.7125C37.6439 41.3067 37.9302 40.8278 38.1105 40.3059C38.2907 39.784 38.361 39.2304 38.3168 38.68L36.7108 18.68C36.6304 17.6776 36.1753 16.7423 35.4363 16.0603C34.6972 15.3784 33.7284 14.9998 32.7228 15H28.6648H12.6648H8.60682C7.60121 14.9998 6.63241 15.3784 5.89337 16.0603Z"/>
<path d="M28.6648 21V15M12.6648 21V15M28.6648 15H32.7228C33.7284 14.9998 34.6972 15.3784 35.4363 16.0603C36.1753 16.7423 36.6304 17.6776 36.7108 18.68L38.3168 38.68C38.361 39.2304 38.2907 39.784 38.1105 40.3059C37.9302 40.8278 37.6439 41.3067 37.2694 41.7125C36.895 42.1183 36.4406 42.4422 35.9349 42.6638C35.4291 42.8854 34.883 42.9998 34.3308 43H6.99882C6.44666 42.9998 5.90052 42.8854 5.39478 42.6638C4.88903 42.4422 4.43464 42.1183 4.06021 41.7125C3.68578 41.3067 3.39942 40.8278 3.21916 40.3059C3.0389 39.784 2.96865 39.2304 3.01282 38.68L4.61882 18.68C4.69927 17.6776 5.15433 16.7423 5.89337 16.0603C6.63241 15.3784 7.60121 14.9998 8.60682 15H12.6648M28.6648 15H12.6648M28.6648 15V11C28.6648 8.87827 27.822 6.84344 26.3217 5.34315C24.8214 3.84285 22.7866 3 20.6648 3C18.5431 3 16.5083 3.84285 15.008 5.34315C13.5077 6.84344 12.6648 8.87827 12.6648 11V15"/>
</svg>
